<svg width="1200" height="630" viewBox="0 0 1200 630" xmlns="http://www.w3.org/2000/svg">
<defs>
  <linearGradient id="bg" x1="0" y1="0" x2="1" y2="1">
    <stop offset="0" stop-color="#0a0c1a"/><stop offset="1" stop-color="#060810"/>
  </linearGradient>
  <radialGradient id="vignette" cx="0.46" cy="0.44" r="0.78">
    <stop offset="0.5" stop-color="#000" stop-opacity="0"/><stop offset="1" stop-color="#000" stop-opacity="0.6"/>
  </radialGradient>
  <radialGradient id="cone" cx="0.42" cy="0.38" r="0.7">
    <stop offset="0" stop-color="#efe7cf"/><stop offset="0.45" stop-color="#bda469"/><stop offset="1" stop-color="#6b5226"/>
  </radialGradient>
  <radialGradient id="ball" cx="0.35" cy="0.32" r="0.8">
    <stop offset="0" stop-color="#ffffff"/><stop offset="0.7" stop-color="#e7e7e2"/><stop offset="1" stop-color="#8f8f88"/>
  </radialGradient>
  <radialGradient id="wheelshadow" cx="0.5" cy="0.5" r="0.5">
    <stop offset="0.7" stop-color="#000" stop-opacity="0.55"/><stop offset="1" stop-color="#000" stop-opacity="0"/>
  </radialGradient>
  <filter id="glow" x="-40%" y="-40%" width="180%" height="180%">
    <feGaussianBlur stdDeviation="7" result="b"/>
    <feMerge><feMergeNode in="b"/><feMergeNode in="SourceGraphic"/></feMerge>
  </filter>
</defs>
<rect width="1200" height="630" fill="url(#bg)"/>
<path d="M0 0V630M20 0V630M40 0V630M60 0V630M80 0V630M100 0V630M120 0V630M140 0V630M160 0V630M180 0V630M200 0V630M220 0V630M240 0V630M260 0V630M280 0V630M300 0V630M320 0V630M340 0V630M360 0V630M380 0V630M400 0V630M420 0V630M440 0V630M460 0V630M480 0V630M500 0V630M520 0V630M540 0V630M560 0V630M580 0V630M600 0V630M620 0V630M640 0V630M660 0V630M680 0V630M700 0V630M720 0V630M740 0V630M760 0V630M780 0V630M800 0V630M820 0V630M840 0V630M860 0V630M880 0V630M900 0V630M920 0V630M940 0V630M960 0V630M980 0V630M1000 0V630M1020 0V630M1040 0V630M1060 0V630M1080 0V630M1100 0V630M1120 0V630M1140 0V630M1160 0V630M1180 0V630M1200 0V630M0 0H1200M0 20H1200M0 40H1200M0 60H1200M0 80H1200M0 100H1200M0 120H1200M0 140H1200M0 160H1200M0 180H1200M0 200H1200M0 220H1200M0 240H1200M0 260H1200M0 280H1200M0 300H1200M0 320H1200M0 340H1200M0 360H1200M0 380H1200M0 400H1200M0 420H1200M0 440H1200M0 460H1200M0 480H1200M0 500H1200M0 520H1200M0 540H1200M0 560H1200M0 580H1200M0 600H1200M0 620H1200" stroke="#1e2848" stroke-width="1" fill="none"/>
<path d="M0 0V630M100 0V630M200 0V630M300 0V630M400 0V630M500 0V630M600 0V630M700 0V630M800 0V630M900 0V630M1000 0V630M1100 0V630M1200 0V630M0 0H1200M0 100H1200M0 200H1200M0 300H1200M0 400H1200M0 500H1200M0 600H1200" stroke="#283458" stroke-width="1.25" fill="none"/>
<g fill="#33457a"><circle cx="0" cy="0" r="1.6"/><circle cx="0" cy="100" r="1.6"/><circle cx="0" cy="200" r="1.6"/><circle cx="0" cy="300" r="1.6"/><circle cx="0" cy="400" r="1.6"/><circle cx="0" cy="500" r="1.6"/><circle cx="0" cy="600" r="1.6"/><circle cx="100" cy="0" r="1.6"/><circle cx="100" cy="100" r="1.6"/><circle cx="100" cy="200" r="1.6"/><circle cx="100" cy="300" r="1.6"/><circle cx="100" cy="400" r="1.6"/><circle cx="100" cy="500" r="1.6"/><circle cx="100" cy="600" r="1.6"/><circle cx="200" cy="0" r="1.6"/><circle cx="200" cy="100" r="1.6"/><circle cx="200" cy="200" r="1.6"/><circle cx="200" cy="300" r="1.6"/><circle cx="200" cy="400" r="1.6"/><circle cx="200" cy="500" r="1.6"/><circle cx="200" cy="600" r="1.6"/><circle cx="300" cy="0" r="1.6"/><circle cx="300" cy="100" r="1.6"/><circle cx="300" cy="200" r="1.6"/><circle cx="300" cy="300" r="1.6"/><circle cx="300" cy="400" r="1.6"/><circle cx="300" cy="500" r="1.6"/><circle cx="300" cy="600" r="1.6"/><circle cx="400" cy="0" r="1.6"/><circle cx="400" cy="100" r="1.6"/><circle cx="400" cy="200" r="1.6"/><circle cx="400" cy="300" r="1.6"/><circle cx="400" cy="400" r="1.6"/><circle cx="400" cy="500" r="1.6"/><circle cx="400" cy="600" r="1.6"/><circle cx="500" cy="0" r="1.6"/><circle cx="500" cy="100" r="1.6"/><circle cx="500" cy="200" r="1.6"/><circle cx="500" cy="300" r="1.6"/><circle cx="500" cy="400" r="1.6"/><circle cx="500" cy="500" r="1.6"/><circle cx="500" cy="600" r="1.6"/><circle cx="600" cy="0" r="1.6"/><circle cx="600" cy="100" r="1.6"/><circle cx="600" cy="200" r="1.6"/><circle cx="600" cy="300" r="1.6"/><circle cx="600" cy="400" r="1.6"/><circle cx="600" cy="500" r="1.6"/><circle cx="600" cy="600" r="1.6"/><circle cx="700" cy="0" r="1.6"/><circle cx="700" cy="100" r="1.6"/><circle cx="700" cy="200" r="1.6"/><circle cx="700" cy="300" r="1.6"/><circle cx="700" cy="400" r="1.6"/><circle cx="700" cy="500" r="1.6"/><circle cx="700" cy="600" r="1.6"/><circle cx="800" cy="0" r="1.6"/><circle cx="800" cy="100" r="1.6"/><circle cx="800" cy="200" r="1.6"/><circle cx="800" cy="300" r="1.6"/><circle cx="800" cy="400" r="1.6"/><circle cx="800" cy="500" r="1.6"/><circle cx="800" cy="600" r="1.6"/><circle cx="900" cy="0" r="1.6"/><circle cx="900" cy="100" r="1.6"/><circle cx="900" cy="200" r="1.6"/><circle cx="900" cy="300" r="1.6"/><circle cx="900" cy="400" r="1.6"/><circle cx="900" cy="500" r="1.6"/><circle cx="900" cy="600" r="1.6"/><circle cx="1000" cy="0" r="1.6"/><circle cx="1000" cy="100" r="1.6"/><circle cx="1000" cy="200" r="1.6"/><circle cx="1000" cy="300" r="1.6"/><circle cx="1000" cy="400" r="1.6"/><circle cx="1000" cy="500" r="1.6"/><circle cx="1000" cy="600" r="1.6"/><circle cx="1100" cy="0" r="1.6"/><circle cx="1100" cy="100" r="1.6"/><circle cx="1100" cy="200" r="1.6"/><circle cx="1100" cy="300" r="1.6"/><circle cx="1100" cy="400" r="1.6"/><circle cx="1100" cy="500" r="1.6"/><circle cx="1100" cy="600" r="1.6"/><circle cx="1200" cy="0" r="1.6"/><circle cx="1200" cy="100" r="1.6"/><circle cx="1200" cy="200" r="1.6"/><circle cx="1200" cy="300" r="1.6"/><circle cx="1200" cy="400" r="1.6"/><circle cx="1200" cy="500" r="1.6"/><circle cx="1200" cy="600" r="1.6"/></g>
<rect width="1200" height="630" fill="url(#vignette)"/>
<path d="M40 40h34M40 40v0" stroke="#3a4a6e" stroke-width="2" fill="none"/><path d="M40 40h0M40 40v34" stroke="#3a4a6e" stroke-width="2" fill="none"/>
<path d="M1160 40h-34M1160 40v0" stroke="#3a4a6e" stroke-width="2" fill="none"/><path d="M1160 40h0M1160 40v34" stroke="#3a4a6e" stroke-width="2" fill="none"/>
<path d="M40 590h34M40 590v0" stroke="#3a4a6e" stroke-width="2" fill="none"/><path d="M40 590h0M40 590v-34" stroke="#3a4a6e" stroke-width="2" fill="none"/>
<path d="M1160 590h-34M1160 590v0" stroke="#3a4a6e" stroke-width="2" fill="none"/><path d="M1160 590h0M1160 590v-34" stroke="#3a4a6e" stroke-width="2" fill="none"/>
<ellipse cx="912" cy="308" rx="240" ry="240" fill="url(#wheelshadow)"/>
<circle cx="912" cy="300" r="222" fill="#2a1c0e"/>
<circle cx="912" cy="300" r="218" fill="none" stroke="#d4a847" stroke-width="6"/>
<circle cx="912" cy="300" r="208" fill="#101010"/>
<g><path d="M912.00 94.00A206 206 0 0 1 946.81 96.96L937.35 152.16A150 150 0 0 0 912.00 150.00Z" fill="#1b7a43"/><path d="M946.81 96.96A206 206 0 0 1 980.63 105.77L961.97 158.57A150 150 0 0 0 937.35 152.16Z" fill="#c1272d"/><path d="M980.63 105.77A206 206 0 0 1 1012.47 120.16L985.15 169.05A150 150 0 0 0 961.97 158.57Z" fill="#1c1c1c"/><path d="M1012.47 120.16A206 206 0 0 1 1041.41 139.72L1006.23 183.29A150 150 0 0 0 985.15 169.05Z" fill="#c1272d"/><path d="M1041.41 139.72A206 206 0 0 1 1066.64 163.90L1024.60 200.90A150 150 0 0 0 1006.23 183.29Z" fill="#1c1c1c"/><path d="M1066.64 163.90A206 206 0 0 1 1087.42 191.99L1039.73 221.35A150 150 0 0 0 1024.60 200.90Z" fill="#c1272d"/><path d="M1087.42 191.99A206 206 0 0 1 1103.15 223.19L1051.18 244.07A150 150 0 0 0 1039.73 221.35Z" fill="#1c1c1c"/><path d="M1103.15 223.19A206 206 0 0 1 1113.38 256.60L1058.63 268.40A150 150 0 0 0 1051.18 244.07Z" fill="#c1272d"/><path d="M1113.38 256.60A206 206 0 0 1 1117.81 291.26L1061.86 293.63A150 150 0 0 0 1058.63 268.40Z" fill="#1c1c1c"/><path d="M1117.81 291.26A206 206 0 0 1 1116.33 326.17L1060.79 319.05A150 150 0 0 0 1061.86 293.63Z" fill="#c1272d"/><path d="M1116.33 326.17A206 206 0 0 1 1108.97 360.32L1055.43 343.92A150 150 0 0 0 1060.79 319.05Z" fill="#1c1c1c"/><path d="M1108.97 360.32A206 206 0 0 1 1095.94 392.74L1045.94 367.53A150 150 0 0 0 1055.43 343.92Z" fill="#c1272d"/><path d="M1095.94 392.74A206 206 0 0 1 1077.62 422.49L1032.60 389.19A150 150 0 0 0 1045.94 367.53Z" fill="#1c1c1c"/><path d="M1077.62 422.49A206 206 0 0 1 1054.54 448.72L1015.79 408.29A150 150 0 0 0 1032.60 389.19Z" fill="#c1272d"/><path d="M1054.54 448.72A206 206 0 0 1 1027.35 470.67L996.00 424.28A150 150 0 0 0 1015.79 408.29Z" fill="#1c1c1c"/><path d="M1027.35 470.67A206 206 0 0 1 996.85 487.71L973.79 436.68A150 150 0 0 0 996.00 424.28Z" fill="#c1272d"/><path d="M996.85 487.71A206 206 0 0 1 963.91 499.35L949.80 445.16A150 150 0 0 0 973.79 436.68Z" fill="#1c1c1c"/><path d="M963.91 499.35A206 206 0 0 1 929.47 505.26L924.72 449.46A150 150 0 0 0 949.80 445.16Z" fill="#c1272d"/><path d="M929.47 505.26A206 206 0 0 1 894.53 505.26L899.28 449.46A150 150 0 0 0 924.72 449.46Z" fill="#1c1c1c"/><path d="M894.53 505.26A206 206 0 0 1 860.09 499.35L874.20 445.16A150 150 0 0 0 899.28 449.46Z" fill="#c1272d"/><path d="M860.09 499.35A206 206 0 0 1 827.15 487.71L850.21 436.68A150 150 0 0 0 874.20 445.16Z" fill="#1c1c1c"/><path d="M827.15 487.71A206 206 0 0 1 796.65 470.67L828.00 424.28A150 150 0 0 0 850.21 436.68Z" fill="#c1272d"/><path d="M796.65 470.67A206 206 0 0 1 769.46 448.72L808.21 408.29A150 150 0 0 0 828.00 424.28Z" fill="#1c1c1c"/><path d="M769.46 448.72A206 206 0 0 1 746.38 422.49L791.40 389.19A150 150 0 0 0 808.21 408.29Z" fill="#c1272d"/><path d="M746.38 422.49A206 206 0 0 1 728.06 392.74L778.06 367.53A150 150 0 0 0 791.40 389.19Z" fill="#1c1c1c"/><path d="M728.06 392.74A206 206 0 0 1 715.03 360.32L768.57 343.92A150 150 0 0 0 778.06 367.53Z" fill="#c1272d"/><path d="M715.03 360.32A206 206 0 0 1 707.67 326.17L763.21 319.05A150 150 0 0 0 768.57 343.92Z" fill="#1c1c1c"/><path d="M707.67 326.17A206 206 0 0 1 706.19 291.26L762.14 293.63A150 150 0 0 0 763.21 319.05Z" fill="#c1272d"/><path d="M706.19 291.26A206 206 0 0 1 710.62 256.60L765.37 268.40A150 150 0 0 0 762.14 293.63Z" fill="#1c1c1c"/><path d="M710.62 256.60A206 206 0 0 1 720.85 223.19L772.82 244.07A150 150 0 0 0 765.37 268.40Z" fill="#c1272d"/><path d="M720.85 223.19A206 206 0 0 1 736.58 191.99L784.27 221.35A150 150 0 0 0 772.82 244.07Z" fill="#1c1c1c"/><path d="M736.58 191.99A206 206 0 0 1 757.36 163.90L799.40 200.90A150 150 0 0 0 784.27 221.35Z" fill="#c1272d"/><path d="M757.36 163.90A206 206 0 0 1 782.59 139.72L817.77 183.29A150 150 0 0 0 799.40 200.90Z" fill="#1c1c1c"/><path d="M782.59 139.72A206 206 0 0 1 811.53 120.16L838.85 169.05A150 150 0 0 0 817.77 183.29Z" fill="#c1272d"/><path d="M811.53 120.16A206 206 0 0 1 843.37 105.77L862.03 158.57A150 150 0 0 0 838.85 169.05Z" fill="#1c1c1c"/><path d="M843.37 105.77A206 206 0 0 1 877.19 96.96L886.65 152.16A150 150 0 0 0 862.03 158.57Z" fill="#c1272d"/><path d="M877.19 96.96A206 206 0 0 1 912.00 94.00L912.00 150.00A150 150 0 0 0 886.65 152.16Z" fill="#1c1c1c"/></g><g><line x1="912.00" y1="150.00" x2="912.00" y2="94.00" stroke="#d4a847" stroke-opacity="0.55" stroke-width="1"/><line x1="937.35" y1="152.16" x2="946.81" y2="96.96" stroke="#d4a847" stroke-opacity="0.55" stroke-width="1"/><line x1="961.97" y1="158.57" x2="980.63" y2="105.77" stroke="#d4a847" stroke-opacity="0.55" stroke-width="1"/><line x1="985.15" y1="169.05" x2="1012.47" y2="120.16" stroke="#d4a847" stroke-opacity="0.55" stroke-width="1"/><line x1="1006.23" y1="183.29" x2="1041.41" y2="139.72" stroke="#d4a847" stroke-opacity="0.55" stroke-width="1"/><line x1="1024.60" y1="200.90" x2="1066.64" y2="163.90" stroke="#d4a847" stroke-opacity="0.55" stroke-width="1"/><line x1="1039.73" y1="221.35" x2="1087.42" y2="191.99" stroke="#d4a847" stroke-opacity="0.55" stroke-width="1"/><line x1="1051.18" y1="244.07" x2="1103.15" y2="223.19" stroke="#d4a847" stroke-opacity="0.55" stroke-width="1"/><line x1="1058.63" y1="268.40" x2="1113.38" y2="256.60" stroke="#d4a847" stroke-opacity="0.55" stroke-width="1"/><line x1="1061.86" y1="293.63" x2="1117.81" y2="291.26" stroke="#d4a847" stroke-opacity="0.55" stroke-width="1"/><line x1="1060.79" y1="319.05" x2="1116.33" y2="326.17" stroke="#d4a847" stroke-opacity="0.55" stroke-width="1"/><line x1="1055.43" y1="343.92" x2="1108.97" y2="360.32" stroke="#d4a847" stroke-opacity="0.55" stroke-width="1"/><line x1="1045.94" y1="367.53" x2="1095.94" y2="392.74" stroke="#d4a847" stroke-opacity="0.55" stroke-width="1"/><line x1="1032.60" y1="389.19" x2="1077.62" y2="422.49" stroke="#d4a847" stroke-opacity="0.55" stroke-width="1"/><line x1="1015.79" y1="408.29" x2="1054.54" y2="448.72" stroke="#d4a847" stroke-opacity="0.55" stroke-width="1"/><line x1="996.00" y1="424.28" x2="1027.35" y2="470.67" stroke="#d4a847" stroke-opacity="0.55" stroke-width="1"/><line x1="973.79" y1="436.68" x2="996.85" y2="487.71" stroke="#d4a847" stroke-opacity="0.55" stroke-width="1"/><line x1="949.80" y1="445.16" x2="963.91" y2="499.35" stroke="#d4a847" stroke-opacity="0.55" stroke-width="1"/><line x1="924.72" y1="449.46" x2="929.47" y2="505.26" stroke="#d4a847" stroke-opacity="0.55" stroke-width="1"/><line x1="899.28" y1="449.46" x2="894.53" y2="505.26" stroke="#d4a847" stroke-opacity="0.55" stroke-width="1"/><line x1="874.20" y1="445.16" x2="860.09" y2="499.35" stroke="#d4a847" stroke-opacity="0.55" stroke-width="1"/><line x1="850.21" y1="436.68" x2="827.15" y2="487.71" stroke="#d4a847" stroke-opacity="0.55" stroke-width="1"/><line x1="828.00" y1="424.28" x2="796.65" y2="470.67" stroke="#d4a847" stroke-opacity="0.55" stroke-width="1"/><line x1="808.21" y1="408.29" x2="769.46" y2="448.72" stroke="#d4a847" stroke-opacity="0.55" stroke-width="1"/><line x1="791.40" y1="389.19" x2="746.38" y2="422.49" stroke="#d4a847" stroke-opacity="0.55" stroke-width="1"/><line x1="778.06" y1="367.53" x2="728.06" y2="392.74" stroke="#d4a847" stroke-opacity="0.55" stroke-width="1"/><line x1="768.57" y1="343.92" x2="715.03" y2="360.32" stroke="#d4a847" stroke-opacity="0.55" stroke-width="1"/><line x1="763.21" y1="319.05" x2="707.67" y2="326.17" stroke="#d4a847" stroke-opacity="0.55" stroke-width="1"/><line x1="762.14" y1="293.63" x2="706.19" y2="291.26" stroke="#d4a847" stroke-opacity="0.55" stroke-width="1"/><line x1="765.37" y1="268.40" x2="710.62" y2="256.60" stroke="#d4a847" stroke-opacity="0.55" stroke-width="1"/><line x1="772.82" y1="244.07" x2="720.85" y2="223.19" stroke="#d4a847" stroke-opacity="0.55" stroke-width="1"/><line x1="784.27" y1="221.35" x2="736.58" y2="191.99" stroke="#d4a847" stroke-opacity="0.55" stroke-width="1"/><line x1="799.40" y1="200.90" x2="757.36" y2="163.90" stroke="#d4a847" stroke-opacity="0.55" stroke-width="1"/><line x1="817.77" y1="183.29" x2="782.59" y2="139.72" stroke="#d4a847" stroke-opacity="0.55" stroke-width="1"/><line x1="838.85" y1="169.05" x2="811.53" y2="120.16" stroke="#d4a847" stroke-opacity="0.55" stroke-width="1"/><line x1="862.03" y1="158.57" x2="843.37" y2="105.77" stroke="#d4a847" stroke-opacity="0.55" stroke-width="1"/><line x1="886.65" y1="152.16" x2="877.19" y2="96.96" stroke="#d4a847" stroke-opacity="0.55" stroke-width="1"/></g>
<circle cx="912" cy="300" r="150" fill="url(#cone)"/>
<circle cx="912" cy="300" r="40" fill="#3a2c12"/>
<circle cx="912" cy="296" r="16" fill="#d4a847"/>
<circle cx="927.10" cy="122.64" r="11" fill="url(#ball)"/>
<circle cx="927.10" cy="122.64" r="15" fill="none" stroke="#d4a847" stroke-width="2" stroke-opacity="0.8"/>
<g filter="url(#glow)"><text x="70" y="232" font-family="'Helvetica Neue',Arial,sans-serif" font-size="104" font-weight="800" fill="#e23744">Roulette</text></g>
<text x="74" y="288" font-family="'Helvetica Neue',Arial,sans-serif" font-size="40" font-weight="700" letter-spacing="14" fill="#f5f0e1">TRAINER</text>
<text x="74" y="344" font-family="'Helvetica Neue',Arial,sans-serif" font-size="23" fill="#9aa6c2">A real forward-physics wheel — proven fair by simulation.</text>
<text x="74" y="378" font-family="'Helvetica Neue',Arial,sans-serif" font-size="23" fill="#9aa6c2">Learn why the only way to win is not to play.</text>
<g><rect x="74" y="410" width="170" height="34" rx="8" fill="#10182e" stroke="#d4a847" stroke-opacity="0.6"/><text x="87" y="433" font-family="'Fira Code',monospace" font-size="15" fill="#d4a847">37 + 38 pockets</text></g>
<g><rect x="262" y="410" width="198.79999999999998" height="34" rx="8" fill="#10182e" stroke="#f5f0e1" stroke-opacity="0.6"/><text x="275" y="433" font-family="'Fira Code',monospace" font-size="15" fill="#f5f0e1">2.70% / 5.26% edge</text></g>
<g><rect x="494" y="410" width="131.6" height="34" rx="8" fill="#10182e" stroke="#7ee0a6" stroke-opacity="0.6"/><text x="507" y="433" font-family="'Fira Code',monospace" font-size="15" fill="#7ee0a6">χ²-verified</text></g>
<line x1="70" y1="566" x2="1130" y2="566" stroke="#283458" stroke-width="1.5"/>
<text x="70" y="600" font-family="'Helvetica Neue',Arial,sans-serif" font-size="22" font-weight="600" letter-spacing="11" fill="#f5f0e1">METAINCOGNITA</text>
<text x="1130" y="600" text-anchor="end" font-family="'Fira Code',monospace" font-size="16" fill="#9aa6c2">casino simulator suite</text>
<rect x="0" y="626" width="1200" height="4" fill="#e23744"/>
</svg>
